<svg width="448" height="630" viewBox="0 0 448 630" fill="none" xmlns="http://www.w3.org/2000/svg">
<path d="M337.962 558.009L337.968 557.674C338.326 535.743 356.217 518.074 378.234 518.074C400.25 518.074 418.141 535.743 418.499 557.674L418.505 558.009L418.505 598.617L337.962 598.617L337.962 558.009Z" fill="#746BEB" stroke="black" stroke-width="2.77733"/>
<rect x="235.029" y="538.904" width="80.5426" height="38.8826" fill="#3BB3BD" stroke="black" stroke-width="2.77733"/>
<rect x="244.75" y="545.847" width="61.1013" height="24.996" fill="#FFC700" stroke="black" stroke-width="2.77733"/>
<rect x="251.693" y="552.096" width="47.2146" height="12.498" fill="white" stroke="black" stroke-width="2.77733"/>
<path fill-rule="evenodd" clip-rule="evenodd" d="M258.636 556.262V560.428H291.964V556.262H258.636Z" fill="black"/>
<path d="M378.903 657.027C380.095 645.031 376.096 632.617 366.907 623.428C357.717 614.239 345.303 610.24 333.307 611.431C332.116 623.427 336.115 635.841 345.304 645.031C354.493 654.22 366.907 658.219 378.903 657.027Z" fill="#3BB3BD"/>
<path d="M377.05 657.028C375.859 645.032 379.858 632.617 389.047 623.428C398.236 614.239 410.65 610.24 422.646 611.431C423.838 623.427 419.839 635.841 410.649 645.031C401.46 654.22 389.046 658.219 377.05 657.028Z" fill="#FFC700"/>
<path d="M130.707 535.432L172.367 555.728V599.881L130.707 582.077V535.432Z" fill="#7FA6BC"/>
<path d="M214.027 535.432L172.367 555.728V599.881L214.027 582.077V535.432Z" fill="#BC7F7F"/>
<path d="M172.367 516.685V555.853M172.367 516.685L130.707 535.557M172.367 516.685L214.027 535.557M172.367 555.853L130.707 535.557M172.367 555.853L214.027 535.557M172.367 555.853V600.005M130.707 535.557V582.202L172.367 600.005M214.027 535.557V582.202L172.367 600.005" stroke="black" stroke-width="2.77733"/>
<path fill-rule="evenodd" clip-rule="evenodd" d="M316.96 614.004H233.64V697.324H316.96V614.004ZM263.034 655.664C256.971 654.051 251.239 650.854 246.485 646.072C238.38 637.921 234.853 626.91 235.904 616.269C246.484 615.212 257.432 618.759 265.537 626.91C270.526 631.928 273.781 638.031 275.3 644.463C276.82 638.031 280.074 631.928 285.064 626.91C293.168 618.759 304.117 615.212 314.696 616.269C315.747 626.909 312.22 637.921 304.116 646.072C299.362 650.854 293.629 654.051 287.566 655.664C293.629 657.277 299.362 660.474 304.116 665.256C312.22 673.407 315.747 684.418 314.696 695.059C304.117 696.116 293.168 692.569 285.064 684.418C280.074 679.399 276.82 673.297 275.3 666.864C273.781 673.297 270.526 679.399 265.537 684.418C257.433 692.569 246.484 696.116 235.904 695.059C234.853 684.418 238.38 673.407 246.485 665.256C251.239 660.474 256.971 657.277 263.034 655.664Z" fill="#FFC700"/>
<circle cx="69.4333" cy="558.345" r="40.2713" stroke="black" stroke-width="2.77733" stroke-dasharray="5.55 5.55"/>
<circle cx="69.4332" cy="558.345" r="19.4413" fill="#FFC700" stroke="black" stroke-width="2.77733"/>
<rect x="132.095" y="615.393" width="80.5426" height="80.5426" stroke="black" stroke-width="2.77733"/>
<path d="M169.949 625.801L172.367 618.449L174.785 625.801C179.056 638.788 189.242 648.974 202.229 653.246L209.582 655.664L202.229 658.082C189.242 662.353 179.056 672.539 174.785 685.526L172.367 692.879L169.949 685.526C165.677 672.539 155.491 662.353 142.504 658.082L135.152 655.664L142.504 653.246C155.491 648.974 165.677 638.788 169.949 625.801Z" fill="#746BEB" stroke="black" stroke-width="2.77733"/>
<circle cx="49.992" cy="636.223" r="19.4413" fill="white" stroke="black" stroke-width="2.77733"/>
<path d="M49.4425 621.508L49.992 619.838L50.5414 621.508C52.7459 628.211 58.0033 633.469 64.7064 635.673L66.3771 636.223L64.7064 636.772C58.0033 638.977 52.7459 644.234 50.5414 650.937L49.992 652.608L49.4425 650.937C47.238 644.234 41.9806 638.977 35.2776 636.772L33.6069 636.223L35.2776 635.673C41.9806 633.469 47.238 628.211 49.4425 621.508Z" fill="#A17FBC" stroke="black" stroke-width="2.77733"/>
<circle cx="88.8745" cy="636.223" r="19.4413" fill="white" stroke="black" stroke-width="2.77733"/>
<path d="M337.96 462.437C359.1 463.152 376.108 480.16 376.823 501.3L337.96 501.3L337.96 462.437Z" fill="black" stroke="black" stroke-width="2.77359"/>
<path d="M418.507 462.437C397.367 463.152 380.359 480.16 379.644 501.3L418.507 501.3L418.507 462.437Z" fill="#FFC700" stroke="black" stroke-width="2.77359"/>
<circle cx="378.234" cy="440.196" r="19.4432" fill="#A17FBC" stroke="black" stroke-width="2.77359"/>
<rect x="132.095" y="420.755" width="80.5426" height="80.5426" fill="#A17FBC" stroke="black" stroke-width="2.77733"/>
<rect x="145.982" y="434.642" width="66.6559" height="66.6559" fill="#7FA6BC" stroke="black" stroke-width="2.77733"/>
<rect x="159.869" y="448.528" width="52.7693" height="52.7693" fill="#BC7F7F" stroke="black" stroke-width="2.77733"/>
<path d="M276.283 464.549L276.305 464.593L276.326 464.637L276.346 464.681L276.366 464.726L276.386 464.771L276.405 464.816L276.424 464.862L276.442 464.908L276.459 464.955L276.477 465.002L276.493 465.05L276.51 465.098L276.525 465.146L276.541 465.194L276.555 465.243L276.569 465.293L276.583 465.342L276.596 465.393L276.609 465.443L276.621 465.494L276.632 465.545L276.643 465.596L276.653 465.648L276.663 465.7L276.672 465.752L276.681 465.805L276.689 465.857L276.696 465.911L276.703 465.964L276.709 466.018L276.715 466.072L276.72 466.126L276.725 466.181L276.728 466.235L276.732 466.29L276.734 466.346L276.736 466.401L276.737 466.457L276.738 466.513L276.738 466.569L276.738 466.625L276.736 466.681L276.734 466.738L276.732 466.795L276.729 466.852L276.725 466.909L276.72 466.966L276.715 467.024L276.709 467.081L276.702 467.139L276.695 467.197L276.687 467.255L276.678 467.313L276.669 467.371L276.659 467.429L276.648 467.487L276.637 467.546L276.625 467.604L276.612 467.663L276.598 467.721L276.584 467.78L276.569 467.838L276.554 467.897L276.537 467.956L276.52 468.014L276.502 468.073L276.484 468.132L276.465 468.19L276.445 468.249L276.424 468.307L276.402 468.366L276.38 468.424L276.357 468.483L276.334 468.541L276.309 468.599L276.284 468.658L276.259 468.716L276.232 468.774L276.205 468.831L276.177 468.889L276.148 468.947L276.119 469.004L276.089 469.061L276.058 469.119L276.026 469.176L275.994 469.232L275.961 469.289L275.927 469.345L275.892 469.402L275.857 469.458L275.821 469.513L275.784 469.569L275.747 469.624L275.708 469.679L275.67 469.734L275.63 469.788L275.59 469.843L275.548 469.897L275.507 469.95L275.464 470.004L275.421 470.057L275.377 470.109L275.332 470.162L275.287 470.214L275.241 470.266L275.194 470.317L275.147 470.368L275.099 470.419L275.05 470.469L275 470.519L274.95 470.568L274.899 470.617L274.847 470.666L274.795 470.714L274.742 470.762L274.688 470.809L274.634 470.856L274.579 470.902L274.524 470.948L274.467 470.994L274.41 471.038L274.353 471.083L274.295 471.127L274.236 471.17L274.176 471.213L274.116 471.256L274.055 471.297L273.994 471.339L273.932 471.379L273.869 471.42L273.806 471.459L273.742 471.498L273.678 471.537L273.613 471.575L273.547 471.612L273.481 471.648L273.414 471.684L273.347 471.72L273.279 471.755L273.211 471.789L273.142 471.822L273.072 471.855L273.002 471.887L272.931 471.918L272.86 471.949L272.789 471.979L272.716 472.009L272.644 472.037L272.571 472.065L272.497 472.093L272.423 472.119L272.348 472.145L272.273 472.17L272.197 472.194L272.121 472.218L272.045 472.241L271.968 472.263L271.891 472.284L271.813 472.305L271.735 472.324L271.656 472.343L271.577 472.361L271.498 472.379L271.418 472.395L271.338 472.411L271.257 472.426L271.177 472.44L271.095 472.453L271.014 472.466L270.932 472.477L270.85 472.488L270.767 472.498L270.684 472.507L270.601 472.515L270.518 472.522L270.434 472.528L270.35 472.534L270.266 472.539L270.181 472.542L270.096 472.545L270.011 472.547L269.926 472.548L269.841 472.548L269.755 472.547L269.669 472.546L269.583 472.543L269.497 472.54L269.411 472.535L269.324 472.53L269.238 472.523L269.151 472.516L269.064 472.508L268.977 472.499L268.89 472.489L268.803 472.478L268.715 472.466L268.628 472.453L268.54 472.439L268.453 472.424L268.365 472.408L268.278 472.391L268.19 472.373L268.102 472.355L268.015 472.335L267.927 472.314L267.84 472.293L267.752 472.27L267.664 472.246L267.577 472.222L267.49 472.196L267.402 472.17L267.315 472.142L267.228 472.114L267.141 472.084L267.054 472.054L266.967 472.022L266.88 471.99L266.794 471.956L266.708 471.922L266.621 471.886L266.535 471.85L266.45 471.812L266.364 471.774L266.279 471.735L266.193 471.694L266.109 471.653L266.024 471.61L265.94 471.567L265.855 471.523L265.772 471.478L265.688 471.431L265.605 471.384L265.522 471.336L265.439 471.287L265.357 471.236L265.275 471.185L265.194 471.133L265.113 471.08L265.032 471.026L264.952 470.971L264.872 470.915L264.792 470.858L264.713 470.8L264.634 470.741L264.556 470.681L264.478 470.621L264.401 470.559L264.324 470.496L264.248 470.433L264.172 470.368L264.097 470.303L264.022 470.236L263.948 470.169L263.875 470.101L263.802 470.032L263.729 469.962L263.657 469.891L263.586 469.819L263.515 469.746L263.445 469.673L263.376 469.598L263.307 469.523L263.239 469.447L263.171 469.37L263.105 469.292L263.038 469.213L262.973 469.133L262.908 469.053L262.844 468.972L262.781 468.889L262.718 468.806L262.657 468.723L262.595 468.638L262.535 468.553L262.476 468.466L262.417 468.379L262.359 468.291L262.302 468.203L262.245 468.114L262.19 468.023L262.135 467.933L262.081 467.841L262.028 467.749L261.976 467.656L261.925 467.562L261.875 467.467L261.825 467.372L261.777 467.276L261.729 467.18L261.682 467.082L261.636 466.984L261.591 466.886L261.547 466.786L261.504 466.686L261.462 466.586L261.421 466.485L261.381 466.383L261.342 466.28L261.304 466.177L261.267 466.074L261.231 465.97L261.195 465.865L261.161 465.76L261.128 465.654L261.096 465.547L261.065 465.44L261.035 465.333L261.006 465.225L260.979 465.116L260.952 465.007L260.926 464.898L260.902 464.788L260.878 464.678L260.856 464.567L260.835 464.456L260.815 464.344L260.796 464.232L260.778 464.119L260.761 464.007L260.746 463.893L260.731 463.78L260.718 463.666L260.706 463.552L260.695 463.437L260.685 463.322L260.676 463.207L260.669 463.091L260.663 462.975L260.658 462.859L260.654 462.743L260.651 462.626L260.65 462.509L260.649 462.392L260.65 462.275L260.652 462.158L260.656 462.04L260.66 461.922L260.666 461.804L260.673 461.686L260.682 461.568L260.691 461.449L260.702 461.331L260.714 461.212L260.727 461.094L260.742 460.975L260.758 460.856L260.775 460.737L260.793 460.618L260.812 460.5L260.833 460.381L260.855 460.262L260.879 460.143L260.903 460.024L260.929 459.905L260.956 459.787L260.985 459.668L261.015 459.55L261.046 459.431L261.078 459.313L261.111 459.195L261.146 459.077L261.182 458.959L261.22 458.841L261.258 458.724L261.298 458.607L261.339 458.49L261.382 458.373L261.426 458.256L261.471 458.14L261.517 458.024L261.564 457.908L261.613 457.793L261.663 457.678L261.715 457.563L261.767 457.448L261.821 457.334L261.876 457.22L261.933 457.107L261.991 456.994L262.05 456.881L262.11 456.769L262.171 456.658L262.234 456.546L262.298 456.436L262.363 456.325L262.43 456.216L262.497 456.106L262.566 455.998L262.636 455.889L262.708 455.782L262.78 455.674L262.854 455.568L262.929 455.462L263.005 455.357L263.083 455.252L263.162 455.148L263.241 455.044L263.322 454.942L263.405 454.839L263.488 454.738L263.573 454.637L263.658 454.537L263.745 454.438L263.833 454.339L263.923 454.242L264.013 454.145L264.104 454.048L264.197 453.953L264.291 453.858L264.386 453.764L264.482 453.671L264.579 453.579L264.677 453.488L264.776 453.397L264.877 453.308L264.978 453.219L265.08 453.131L265.184 453.044L265.289 452.958L265.394 452.873L265.501 452.789L265.609 452.706L265.717 452.624L265.827 452.543L265.938 452.463L266.05 452.384L266.162 452.306L266.276 452.229L266.391 452.153L266.506 452.078L266.623 452.004L266.74 451.932L266.858 451.86L266.978 451.789L267.098 451.72L267.219 451.652L267.341 451.585L267.464 451.519L267.587 451.454L267.712 451.39L267.837 451.328L267.964 451.266L268.091 451.206L268.218 451.148L268.347 451.09L268.476 451.033L268.606 450.978L268.737 450.924L268.869 450.872L269.001 450.82L269.134 450.77L269.268 450.722L269.403 450.674L269.538 450.628L269.674 450.583L269.81 450.539L269.947 450.497L270.085 450.456L270.224 450.417L270.363 450.379L270.502 450.342L270.642 450.307L270.783 450.273L270.924 450.24L271.066 450.209L271.208 450.179L271.351 450.15L271.495 450.124L271.638 450.098L271.783 450.074L271.927 450.051L272.072 450.03L272.218 450.01L272.364 449.992L272.51 449.975L272.657 449.96L272.804 449.946L272.952 449.933L273.099 449.922L273.247 449.913L273.396 449.905L273.545 449.899L273.694 449.894L273.843 449.89L273.992 449.889L274.142 449.888L274.292 449.889L274.442 449.892L274.592 449.896L274.743 449.902L274.893 449.91L275.044 449.918L275.195 449.929L275.346 449.941L275.497 449.954L275.648 449.97L275.799 449.986L275.95 450.005L276.101 450.024L276.252 450.046L276.403 450.069L276.554 450.093L276.706 450.119L276.857 450.147L277.008 450.176L277.158 450.207L277.309 450.24L277.46 450.274L277.61 450.309L277.76 450.347L277.91 450.385L278.06 450.426L278.21 450.468L278.36 450.511L278.509 450.556L278.658 450.603L278.806 450.651L278.955 450.701L279.103 450.752L279.251 450.805L279.398 450.86L279.545 450.916L279.692 450.974L279.838 451.033L279.984 451.094L280.129 451.157L280.274 451.221L280.418 451.286L280.562 451.353L280.706 451.422L280.849 451.492L280.991 451.564L281.133 451.637L281.275 451.712L281.415 451.789L281.556 451.867L281.695 451.946L281.834 452.027L281.972 452.109L282.11 452.194L282.247 452.279L282.383 452.366L282.519 452.455L282.653 452.545L282.788 452.636L282.921 452.729L283.053 452.824L283.185 452.92L283.316 453.017L283.446 453.116L283.575 453.216L283.704 453.318L283.831 453.421L283.958 453.526L284.083 453.632L284.208 453.739L284.332 453.848L284.455 453.958L284.577 454.07L284.698 454.183L284.817 454.298L284.936 454.413L285.054 454.53L285.171 454.649L285.287 454.769L285.402 454.89L285.515 455.012L285.628 455.136L285.739 455.261L285.849 455.387L285.958 455.515L286.066 455.644L286.173 455.774L286.278 455.905L286.383 456.038L286.486 456.172L286.588 456.307L286.688 456.443L286.788 456.581L286.886 456.719L286.983 456.859L287.078 457L287.172 457.142L287.265 457.285L287.357 457.429L287.447 457.575L287.535 457.721L287.623 457.869L287.709 458.018L287.793 458.167L287.876 458.318L287.958 458.47L288.038 458.623L288.117 458.777L288.195 458.931L288.27 459.087L288.345 459.244L288.418 459.401L288.489 459.56L288.559 459.719L288.627 459.88L288.694 460.041L288.759 460.203L288.823 460.366L288.885 460.53L288.945 460.695L289.004 460.86L289.061 461.026L289.117 461.193L289.171 461.361L289.223 461.53L289.273 461.699L289.322 461.869L289.37 462.04L289.415 462.211L289.459 462.383L289.502 462.555L289.542 462.729L289.581 462.903L289.618 463.077L289.654 463.252L289.687 463.428L289.719 463.604L289.749 463.781L289.778 463.958L289.804 464.135L289.829 464.314L289.852 464.492L289.873 464.671L289.893 464.851L289.911 465.031L289.927 465.211L289.941 465.392L289.953 465.572L289.963 465.754L289.972 465.935L289.979 466.117L289.984 466.299L289.987 466.482L289.988 466.665L289.987 466.847L289.985 467.031L289.98 467.214L289.974 467.397L289.966 467.581L289.956 467.764L289.944 467.948L289.931 468.132L289.915 468.316L289.898 468.5L289.878 468.684L289.857 468.868L289.834 469.052L289.809 469.236L289.782 469.42L289.753 469.604L289.722 469.788L289.69 469.971L289.655 470.155L289.619 470.338L289.581 470.521L289.54 470.704L289.498 470.887L289.454 471.07L289.408 471.252L289.361 471.434L289.311 471.616L289.259 471.798L289.206 471.979L289.15 472.16L289.093 472.34L289.034 472.52L288.973 472.7L288.91 472.879L288.845 473.058L288.778 473.236L288.71 473.414L288.639 473.591L288.567 473.768L288.493 473.944L288.416 474.12L288.339 474.295L288.259 474.47L288.177 474.643L288.093 474.817L288.008 474.989L287.921 475.161L287.832 475.332L287.741 475.503L287.648 475.673L287.554 475.842L287.457 476.01L287.359 476.177L287.259 476.344L287.158 476.51L287.054 476.674L286.949 476.838L286.842 477.002L286.733 477.164L286.622 477.325L286.51 477.485L286.396 477.645L286.28 477.803L286.163 477.96L286.043 478.117L285.922 478.272L285.8 478.426L285.675 478.579L285.549 478.731L285.422 478.882L285.292 479.032L285.161 479.181L285.029 479.328L284.894 479.474L284.758 479.619L284.621 479.763L284.482 479.906L284.341 480.047L284.199 480.187L284.055 480.326L283.909 480.463L283.763 480.599L283.614 480.734L283.464 480.868L283.313 481L283.16 481.13L283.005 481.259L282.849 481.387L282.692 481.513L282.533 481.638L282.373 481.761L282.211 481.883L282.048 482.004L281.884 482.122L281.718 482.24L281.551 482.355L281.382 482.47L281.212 482.582L281.041 482.693L280.869 482.802L280.695 482.91L280.52 483.016L280.344 483.12L280.167 483.223L279.988 483.324L279.808 483.423L279.627 483.521L279.445 483.617L279.262 483.711L279.077 483.803L278.891 483.894L278.705 483.982L278.517 484.069L278.328 484.154L278.138 484.238L277.947 484.319L277.755 484.399L277.562 484.476L277.369 484.552L277.174 484.626L276.978 484.698L276.781 484.769L276.583 484.837L276.385 484.903L276.186 484.967L275.985 485.03L275.784 485.09L275.582 485.149L275.38 485.205L275.176 485.26L274.972 485.312L274.767 485.363L274.562 485.411L274.355 485.458L274.148 485.502L273.941 485.544L273.733 485.585L273.524 485.623L273.314 485.659L273.104 485.693L272.894 485.725L272.683 485.755L272.471 485.783L272.259 485.808L272.047 485.832L271.834 485.853L271.62 485.872L271.407 485.889L271.192 485.904L270.978 485.917L270.763 485.928L270.548 485.936L270.332 485.943L270.117 485.947L269.901 485.949L269.685 485.949L269.468 485.946L269.252 485.942L269.035 485.935L268.818 485.926L268.601 485.915L268.384 485.902L268.167 485.886L267.95 485.868L267.733 485.848L267.515 485.826L267.298 485.802L267.081 485.775L266.864 485.746L266.647 485.715L266.43 485.682L266.213 485.646L265.997 485.608L265.781 485.568L265.564 485.526L265.348 485.482L265.133 485.435L264.917 485.386L264.702 485.335L264.487 485.282L264.273 485.226L264.059 485.169L263.845 485.109L263.632 485.046L263.419 484.982L263.206 484.915L262.994 484.847L262.783 484.776L262.572 484.702L262.362 484.627L262.152 484.549L261.943 484.47L261.734 484.388L261.526 484.303L261.319 484.217L261.112 484.129L260.906 484.038L260.701 483.945L260.497 483.85L260.293 483.753L260.09 483.654L259.888 483.552L259.687 483.449L259.487 483.343L259.287 483.235L259.089 483.125L258.891 483.013L258.694 482.899L258.499 482.783L258.304 482.665L258.11 482.544L257.918 482.422L257.726 482.297L257.536 482.171L257.346 482.042L257.158 481.912L256.971 481.779L256.785 481.644L256.601 481.508L256.417 481.369L256.235 481.229L256.054 481.086L255.874 480.942L255.696 480.795L255.519 480.647L255.343 480.497L255.169 480.344L254.996 480.19L254.824 480.034L254.654 479.877L254.485 479.717L254.318 479.555L254.152 479.392L253.988 479.227L253.825 479.06L253.664 478.891L253.504 478.721L253.346 478.548L253.19 478.374L253.035 478.198L252.882 478.021L252.73 477.842L252.58 477.661L252.432 477.478L252.286 477.294L252.141 477.108L251.998 476.921L251.857 476.732L251.717 476.541L251.58 476.349L251.444 476.155L251.31 475.96L251.178 475.763L251.048 475.565L250.919 475.365L250.793 475.164L250.668 474.961L250.546 474.757L250.425 474.551L250.307 474.344L250.19 474.136L250.075 473.926L249.963 473.715L249.852 473.503L249.744 473.289L249.637 473.074L249.533 472.858L249.43 472.641L249.33 472.422L249.232 472.202L249.136 471.981L249.043 471.759L248.951 471.536L248.861 471.312L248.774 471.086L248.689 470.86L248.606 470.632L248.526 470.403L248.447 470.174L248.371 469.943L248.297 469.712L248.226 469.479L248.156 469.246L248.089 469.011L248.025 468.776L247.962 468.54L247.902 468.303L247.844 468.066L247.789 467.827L247.736 467.588L247.685 467.348L247.637 467.107L247.591 466.866L247.548 466.624L247.507 466.381L247.468 466.138L247.432 465.894L247.398 465.65L247.367 465.405L247.338 465.16L247.311 464.914L247.287 464.667L247.266 464.42L247.247 464.173L247.23 463.925L247.216 463.677L247.204 463.429L247.195 463.18L247.189 462.931L247.184 462.682L247.183 462.432L247.184 462.183L247.187 461.933L247.193 461.683L247.202 461.432L247.213 461.182L247.226 460.932L247.242 460.681L247.261 460.431L247.282 460.18L247.306 459.929L247.332 459.679L247.361 459.428L247.392 459.178L247.426 458.928L247.462 458.678L247.501 458.428L247.543 458.178L247.587 457.928L247.633 457.679L247.683 457.43L247.734 457.181L247.789 456.933L247.845 456.685L247.905 456.437L247.967 456.19L248.031 455.943L248.098 455.697L248.168 455.451L248.24 455.206L248.314 454.961L248.392 454.716L248.471 454.473L248.553 454.229L248.638 453.987L248.725 453.745L248.815 453.504L248.907 453.264L249.002 453.024L249.099 452.785L249.199 452.547L249.301 452.31L249.405 452.073L249.513 451.838L249.622 451.603L249.734 451.369L249.848 451.136L249.965 450.904L250.085 450.674L250.206 450.444L250.331 450.215L250.457 449.987L250.586 449.761L250.717 449.535L250.851 449.311L250.987 449.088L251.125 448.866L251.266 448.645L251.409 448.426L251.555 448.207L251.702 447.99L251.852 447.775L252.005 447.56L252.159 447.348L252.316 447.136L252.475 446.926L252.636 446.717L252.8 446.51L252.966 446.305L253.134 446.1L253.304 445.898L253.476 445.697L253.651 445.497L253.827 445.299L254.006 445.103L254.187 444.908L254.37 444.716L254.555 444.524L254.742 444.335L254.931 444.147L255.122 443.961L255.316 443.777L255.511 443.594L255.708 443.414L255.907 443.235L256.108 443.058L256.311 442.883L256.516 442.71L256.723 442.539L256.932 442.37L257.142 442.203L257.355 442.037L257.569 441.874L257.785 441.713L258.003 441.554L258.223 441.397L258.444 441.242L258.667 441.089L258.892 440.939L259.118 440.79L259.347 440.644L259.576 440.5L259.808 440.358L260.041 440.218L260.275 440.08L260.512 439.945L260.749 439.812L260.988 439.681L261.229 439.553L261.471 439.427L261.715 439.303L261.96 439.182L262.206 439.063L262.454 438.947L262.703 438.833L262.954 438.721L263.206 438.612L263.459 438.505L263.713 438.4L263.969 438.299L264.226 438.199L264.484 438.102L264.743 438.008L265.003 437.916L265.264 437.827L265.527 437.741L265.791 437.656L266.055 437.575L266.321 437.496L266.587 437.42L266.855 437.346L267.123 437.275L267.393 437.207L267.663 437.141L267.934 437.078L268.206 437.018L268.479 436.96L268.753 436.905L269.027 436.853L269.302 436.804L269.578 436.757L269.854 436.713L270.131 436.672L270.409 436.633L270.687 436.598L270.966 436.565L271.245 436.534L271.525 436.507L271.805 436.483L272.086 436.461L272.367 436.442L272.649 436.426L272.931 436.412L273.213 436.402L273.496 436.394L273.779 436.389L274.062 436.387L274.345 436.388L274.629 436.392L274.912 436.399L275.196 436.408L275.48 436.42L275.764 436.436L276.048 436.454L276.332 436.474L276.616 436.498L276.9 436.525L277.184 436.554L277.468 436.587L277.752 436.622L278.035 436.66L278.319 436.701L278.602 436.745L278.885 436.792L279.168 436.842L279.45 436.895L279.732 436.95L280.014 437.008L280.295 437.07L280.576 437.134L280.856 437.201L281.136 437.27L281.415 437.343L281.694 437.419L281.973 437.497L282.25 437.578L282.527 437.662L282.804 437.749L283.08 437.839L283.355 437.932L283.629 438.027L283.902 438.126L284.175 438.227L284.447 438.331L284.718 438.437L284.988 438.547L285.258 438.659L285.526 438.774L285.793 438.892L286.059 439.013L286.325 439.137L286.589 439.263L286.852 439.392L287.114 439.523L287.375 439.658L287.635 439.795L287.893 439.935L288.15 440.077L288.406 440.222L288.661 440.37L288.915 440.521L289.167 440.674L289.417 440.83L289.667 440.988L289.915 441.149L290.161 441.313L290.406 441.479L290.649 441.648L290.891 441.82L291.132 441.994L291.37 442.17L291.607 442.349L291.843 442.531L292.077 442.715L292.309 442.901L292.539 443.09L292.768 443.281L292.995 443.475L293.22 443.672L293.443 443.87L293.665 444.071L293.884 444.275L294.102 444.48L294.318 444.688L294.531 444.899L294.743 445.111L294.953 445.326L295.161 445.543L295.367 445.763L295.57 445.984L295.772 446.208L295.971 446.434L296.169 446.662L296.364 446.893L296.557 447.125L296.748 447.36L296.936 447.596L297.122 447.835L297.306 448.076L297.488 448.318L297.667 448.563L297.844 448.809L298.019 449.058L298.191 449.309L298.361 449.561L298.529 449.815L298.694 450.071L298.856 450.329L299.016 450.589L299.174 450.85L299.329 451.114L299.481 451.379L299.631 451.646L299.779 451.914L299.923 452.184L300.065 452.456L300.205 452.729L300.342 453.004L300.476 453.28L300.607 453.558L300.736 453.838L300.862 454.119L300.985 454.401L301.106 454.685L301.223 454.97L301.338 455.257L301.451 455.544L301.56 455.834L301.666 456.124L301.77 456.416L301.871 456.709L301.968 457.003L302.063 457.299L302.155 457.595L302.245 457.893L302.331 458.191L302.414 458.491L302.494 458.792L302.572 459.094L302.646 459.397L302.717 459.7L302.786 460.005L302.851 460.311L302.913 460.617L302.972 460.924L303.029 461.232L303.082 461.541L303.132 461.85L303.179 462.161L303.223 462.471L303.263 462.783L303.301 463.095L303.336 463.408L303.367 463.721L303.396 464.035L303.421 464.349L303.443 464.663L303.462 464.979L303.477 465.294L303.49 465.61L303.499 465.926L303.506 466.243L303.509 466.559L303.508 466.876L303.505 467.193L303.499 467.511L303.489 467.828L303.476 468.146L303.46 468.463L303.441 468.781L303.418 469.099L303.392 469.416L303.364 469.734L303.331 470.051L303.296 470.369L303.257 470.686L303.216 471.003L303.171 471.32L303.123 471.636L303.071 471.952L303.017 472.268L302.959 472.584L302.898 472.899L302.833 473.214L302.766 473.528L302.695 473.842L302.621 474.155L302.544 474.468L302.464 474.78L302.381 475.092L302.294 475.403L302.204 475.713L302.111 476.023L302.015 476.332L301.916 476.64L301.814 476.947L301.708 477.253L301.599 477.559L301.487 477.863L301.372 478.167L301.254 478.47L301.133 478.771L301.009 479.072L300.881 479.372L300.751 479.67L300.617 479.967L300.48 480.264L300.341 480.559L300.198 480.852L300.052 481.145L299.903 481.436L299.751 481.726L299.596 482.015L299.438 482.302L299.278 482.588L299.114 482.872L298.947 483.155L298.777 483.436L298.605 483.716L298.429 483.994L298.25 484.271L298.069 484.546L297.885 484.819L297.698 485.091L297.508 485.361L297.315 485.629L297.119 485.896L296.921 486.16L296.72 486.423L296.516 486.684L296.309 486.943L296.1 487.2L295.888 487.455L295.673 487.709L295.456 487.96L295.235 488.209L295.013 488.456L294.787 488.701L294.559 488.944L294.329 489.185L294.096 489.423L293.86 489.66L293.622 489.894L293.381 490.126L293.138 490.355L292.892 490.583L292.644 490.808L292.394 491.03L292.141 491.251L291.886 491.468L291.629 491.684L291.369 491.897L291.107 492.107L290.842 492.315L290.576 492.52L290.307 492.723L290.036 492.924L289.763 493.121L289.487 493.316L289.21 493.509L288.93 493.698L288.648 493.885L288.365 494.07L288.079 494.251L287.791 494.43L287.502 494.606L287.21 494.779L286.917 494.949L286.621 495.117L286.324 495.282L286.025 495.443L285.724 495.602L285.421 495.758L285.117 495.911L284.811 496.061L284.503 496.208L284.193 496.352L283.882 496.493L283.57 496.631L283.255 496.766L282.94 496.898L282.622 497.026L282.304 497.152L281.983 497.274L281.662 497.394L281.339 497.51L281.014 497.623L280.689 497.732L280.362 497.839L280.034 497.942L279.704 498.042L279.373 498.139L279.042 498.233L278.709 498.323L278.375 498.41L278.039 498.494L277.703 498.574L277.366 498.651L277.028 498.725L276.689 498.795L276.349 498.862L276.008 498.926L275.667 498.986L275.324 499.043L274.981 499.096L274.637 499.146L274.292 499.193L273.947 499.236L273.601 499.276L273.255 499.312L272.907 499.345L272.56 499.374L272.212 499.4L271.863 499.422L271.514 499.441L271.165 499.457L270.815 499.469L270.465 499.477L270.115 499.482L269.764 499.483L269.413 499.481L269.062 499.475L268.711 499.466L268.36 499.453L268.009 499.437L267.657 499.417L267.306 499.394L266.955 499.367L266.603 499.336L266.252 499.302L265.901 499.265L265.551 499.224L265.2 499.179L264.85 499.131L264.5 499.079L264.15 499.024L263.801 498.965L263.452 498.903L263.103 498.837L262.755 498.767L262.408 498.694L262.061 498.618L261.714 498.538L261.368 498.454L261.023 498.367L260.679 498.277L260.335 498.183L259.992 498.085L259.65 497.984L259.308 497.879L258.968 497.771L258.628 497.66L258.29 497.545L257.952 497.426L257.615 497.304L257.279 497.179L256.945 497.05L256.611 496.918L256.279 496.782L255.948 496.643L255.618 496.5L255.289 496.354L254.962 496.205L254.635 496.053L254.311 495.897L253.987 495.737L253.665 495.575L253.345 495.408L253.026 495.239L252.708 495.067L252.393 494.891L252.078 494.711L251.765 494.529L251.454 494.343L251.145 494.155L250.838 493.962L250.532 493.767L250.228 493.569L249.925 493.367L249.625 493.162L249.327 492.954L249.03 492.743L248.735 492.529L248.443 492.312L248.152 492.092L247.864 491.869L247.577 491.642L247.293 491.413L247.011 491.181L246.731 490.946L246.453 490.707L246.177 490.466L245.904 490.222L245.633 489.975L245.365 489.726L245.098 489.473L244.834 489.218L244.573 488.96L244.314 488.699L244.057 488.435L243.803 488.169L243.552 487.9L243.303 487.628L243.057 487.354L242.813 487.077L242.572 486.797L242.334 486.515L242.098 486.23L241.865 485.943L241.635 485.654L241.407 485.361L241.183 485.067L240.961 484.77L240.742 484.47L240.526 484.169L240.313 483.865L240.103 483.558L239.896 483.25L239.692 482.939L239.491 482.626L239.293 482.31L239.098 481.993L238.906 481.673L238.717 481.352L238.531 481.028L238.348 480.702L238.169 480.374L237.993 480.045L237.82 479.713L237.65 479.379L237.483 479.044L237.32 478.706L237.16 478.367L237.004 478.026L236.85 477.684L236.701 477.339L236.554 476.993L236.411 476.645L236.271 476.296L236.135 475.945L236.002 475.593L235.873 475.239L235.747 474.883L235.625 474.526L235.506 474.168L235.39 473.808L235.279 473.447L235.17 473.085L235.066 472.721L234.965 472.356L234.867 471.99L234.774 471.623L234.683 471.254L234.597 470.885L234.514 470.514L234.435 470.143L234.36 469.77L234.288 469.397L234.22 469.022L234.155 468.647L234.095 468.271L234.038 467.894L233.985 467.516L233.936 467.138L233.89 466.758L233.848 466.379L233.81 465.998L233.776 465.617L233.746 465.236L233.719 464.854L233.696 464.471L233.678 464.088L233.662 463.705L233.651 463.321L233.644 462.938L233.64 462.553L233.641 462.169L233.645 461.784L233.653 461.399L233.665 461.015L233.68 460.63L233.7 460.244L233.724 459.859L233.751 459.474L233.782 459.09L233.817 458.705L233.856 458.32L233.899 457.936L233.946 457.552L233.997 457.168L234.051 456.784L234.11 456.401L234.172 456.018L234.238 455.635L234.308 455.253L234.382 454.872L234.46 454.491L234.542 454.111L234.627 453.731L234.716 453.352L234.81 452.974L234.907 452.596L235.008 452.219L235.112 451.843L235.221 451.468L235.333 451.094L235.449 450.721L235.569 450.349L235.693 449.977L235.821 449.607L235.952 449.238L236.087 448.87L236.226 448.503L236.369 448.138L236.515 447.773L236.665 447.41L236.819 447.048L236.976 446.688L237.138 446.329L237.303 445.972L237.471 445.616L237.643 445.261L237.819 444.908L237.999 444.557L238.182 444.207L238.369 443.859L238.559 443.512L238.753 443.168L238.95 442.825L239.151 442.484L239.356 442.144L239.564 441.807L239.775 441.472L239.99 441.138L240.208 440.807L240.43 440.477L240.655 440.15L240.884 439.825L241.116 439.501L241.352 439.18L241.59 438.862L241.832 438.545L242.078 438.231L242.326 437.919L242.578 437.609L242.833 437.302L243.091 436.997L243.353 436.695L243.618 436.395L243.885 436.097L244.156 435.803L244.43 435.51L244.707 435.221L244.987 434.934L245.27 434.649L245.557 434.367L245.846 434.089L246.138 433.812L246.433 433.539L246.73 433.268L247.031 433.001L247.335 432.736L247.641 432.474L247.95 432.215L248.262 431.959L248.576 431.706L248.894 431.456L249.213 431.209L249.536 430.966L249.861 430.725L250.189 430.487L250.519 430.253L250.852 430.022L251.187 429.794L251.525 429.569L251.865 429.348L252.207 429.13L252.552 428.915L252.899 428.704L253.249 428.496L253.601 428.291L253.954 428.09L254.311 427.892L254.669 427.698L255.029 427.507L255.392 427.32L255.756 427.136L256.123 426.956L256.491 426.78L256.862 426.607L257.234 426.438L257.608 426.272L257.985 426.11L258.362 425.952L258.742 425.797L259.123 425.647L259.507 425.5L259.891 425.356L260.278 425.217L260.666 425.081L261.055 424.949L261.446 424.821L261.839 424.697L262.233 424.577L262.628 424.461L263.025 424.348L263.422 424.24L263.822 424.135L264.222 424.035L264.624 423.938L265.027 423.845L265.431 423.757L265.836 423.672L266.242 423.591L266.649 423.515L267.057 423.442L267.466 423.374L267.876 423.309L268.286 423.249L268.698 423.193L269.11 423.141L269.523 423.093L269.937 423.049L270.351 423.009L270.766 422.973L271.181 422.942L271.597 422.915L272.014 422.891L272.43 422.872L272.848 422.858L273.265 422.847L273.683 422.84L274.101 422.838L274.519 422.84L274.938 422.846L275.357 422.857L275.775 422.871L276.194 422.89L276.613 422.913L277.032 422.94L277.45 422.971L277.869 423.007L278.287 423.047L278.705 423.091L279.123 423.139L279.541 423.191L279.958 423.248L280.375 423.309L280.792 423.374L281.208 423.443L281.623 423.517L282.038 423.594L282.453 423.676L282.866 423.762L283.279 423.852L283.692 423.947L284.103 424.045L284.514 424.148L284.924 424.255L285.333 424.366L285.742 424.482L286.149 424.601L286.555 424.725L286.96 424.852L287.364 424.984L287.767 425.12L288.169 425.26L288.569 425.404L288.969 425.553L289.367 425.705L289.763 425.861L290.158 426.022L290.552 426.186L290.944 426.355L291.335 426.527L291.724 426.704L292.112 426.884L292.498 427.068L292.883 427.257L293.265 427.449L293.646 427.645L294.025 427.846L294.402 428.05L294.778 428.258L295.151 428.469L295.523 428.685L295.892 428.904L296.26 429.128L296.625 429.355L296.988 429.586L297.349 429.82L297.708 430.058L298.065 430.3L298.42 430.546L298.772 430.795L299.121 431.048L299.469 431.305L299.814 431.565L300.156 431.829L300.496 432.096L300.834 432.367L301.169 432.642L301.501 432.92L301.831 433.201L302.158 433.486L302.482 433.774L302.804 434.065L303.123 434.36L303.439 434.659L303.752 434.96L304.062 435.265L304.37 435.573L304.674 435.884L304.975 436.199L305.274 436.516L305.569 436.837L305.861 437.161L306.15 437.488L306.436 437.818L306.719 438.151L306.999 438.487L307.275 438.826L307.548 439.168L307.818 439.512L308.084 439.86L308.347 440.211L308.607 440.564L308.863 440.92L309.116 441.278L309.365 441.64L309.611 442.004L309.853 442.371L310.092 442.74L310.327 443.112L310.558 443.486L310.786 443.863L311.01 444.242L311.231 444.624L311.447 445.008L311.66 445.395L311.869 445.783L312.075 446.174L312.276 446.568L312.474 446.963L312.667 447.361L312.857 447.76L313.043 448.162L313.225 448.566L313.403 448.972L313.577 449.379L313.747 449.789L313.913 450.201L314.075 450.614L314.233 451.029L314.386 451.446L314.536 451.865L314.682 452.286L314.823 452.708L314.96 453.131L315.093 453.556L315.222 453.983L315.346 454.411L315.467 454.841L315.583 455.272L315.694 455.704L315.802 456.138L315.905 456.573L316.004 457.009L316.098 457.447L316.189 457.885L316.274 458.325L316.356 458.765L316.433 459.207L316.506 459.65L316.574 460.093L316.638 460.538L316.697 460.983L316.752 461.429L316.803 461.876L316.849 462.323L316.89 462.771L316.927 463.22L316.96 463.669" stroke="black" stroke-width="2.77733" stroke-linecap="round"/>
<path d="M40.9656 461.026C76.5502 433.253 19.6149 433.253 55.1995 461.026C90.784 488.799 33.8487 488.799 69.4333 461.026C105.018 433.253 48.0825 433.253 83.6671 461.026C119.252 488.799 62.3164 488.799 97.9009 461.026" stroke="black" stroke-width="2.77733" stroke-linecap="round"/>
<path d="M34.4389 353.848C33.9787 353.235 33.1083 353.11 32.4947 353.57C31.8812 354.031 31.7568 354.901 32.217 355.515L34.4389 353.848ZM104.844 363.013L88.8239 362.328L96.2407 376.545L104.844 363.013ZM32.217 355.515C40.5389 366.61 63.5252 382.949 94.2972 370.076L93.2254 367.514C63.9647 379.754 42.2418 364.252 34.4389 353.848L32.217 355.515Z" fill="black"/>
<circle cx="275.3" cy="363.708" r="40.2713" fill="#F3CEB4" stroke="black" stroke-width="2.77733"/>
<circle cx="257.248" cy="358.848" r="6.24899" stroke="black" stroke-width="2.77733"/>
<circle cx="293.353" cy="358.848" r="6.24899" stroke="black" stroke-width="2.77733"/>
<path d="M293.3 375.512H257.3C258.009 384.833 265.797 392.176 275.3 392.176C284.803 392.176 292.591 384.833 293.3 375.512Z" fill="#BC7F7F" stroke="black" stroke-width="2.77733"/>
<path fill-rule="evenodd" clip-rule="evenodd" d="M214.027 338.249V346.105L189.97 322.048H197.825L214.027 338.249ZM214.027 330.394V322.048H205.681L214.027 330.394ZM182.114 322.048L214.027 353.96V361.816L174.259 322.048H182.114ZM166.403 322.048L214.027 369.671V377.527L158.548 322.048H166.403ZM150.693 322.048L214.027 385.382V393.237L142.837 322.048H150.693ZM134.982 322.048L214.027 401.093V405.368H210.446L130.707 325.628V322.048H134.982ZM130.707 333.484L202.591 405.368H194.735L130.707 341.339V333.484ZM186.88 405.368L130.707 349.195V357.05L179.024 405.368H186.88ZM171.169 405.368L130.707 364.906V372.761L163.313 405.368H171.169ZM155.458 405.368L130.707 380.617V388.472L147.602 405.368H155.458ZM139.747 405.368L130.707 396.328V405.368H139.747Z" fill="#A17FBC"/>
<path d="M418.481 285.83H337.986C338.718 264.232 356.457 246.947 378.234 246.947C400.01 246.947 417.749 264.232 418.481 285.83Z" fill="#746BEB" stroke="black" stroke-width="2.77733"/>
<path d="M404.582 285.83H351.885C352.607 271.904 364.128 260.834 378.234 260.834C392.34 260.834 403.86 271.904 404.582 285.83Z" fill="#FFC700" stroke="black" stroke-width="2.77733"/>
<path d="M390.655 285.83H365.812C366.503 279.581 371.801 274.721 378.234 274.721C384.667 274.721 389.964 279.581 390.655 285.83Z" fill="white" stroke="black" stroke-width="2.77733"/>
<rect x="337.962" y="323.437" width="80.5426" height="80.5426" stroke="black" stroke-width="2.77733" stroke-dasharray="5.55 5.55"/>
<rect x="358.792" y="344.266" width="38.8826" height="38.8826" fill="#746BEB" stroke="black" stroke-width="2.77733"/>
<path d="M419.894 210.73L336.574 210.73L336.574 127.41L419.894 210.73Z" fill="#FFC700"/>
<path d="M337.962 209.342L337.962 128.799L418.505 128.799L418.505 209.342L337.962 209.342Z" stroke="black" stroke-width="2.77733"/>
<path d="M275.3 308.049C252.292 308.049 233.64 289.397 233.64 266.389L275.3 266.389L275.3 308.049Z" fill="#746BEB"/>
<path d="M233.64 224.729C256.648 224.729 275.3 243.381 275.3 266.389L233.64 266.389L233.64 224.729Z" fill="#3BB3BD"/>
<path d="M316.96 224.729C293.952 224.729 275.3 243.381 275.3 266.389L316.96 266.389L316.96 224.729Z" fill="#FFC700"/>
<path d="M275.3 308.049C298.308 308.049 316.96 289.397 316.96 266.389L275.3 266.389L275.3 308.049Z" fill="#3BB3BD"/>
<path fill-rule="evenodd" clip-rule="evenodd" d="M196.668 266.389C196.668 279.81 185.788 290.69 172.367 290.69C158.945 290.69 148.065 279.81 148.065 266.389C148.065 252.967 158.945 242.087 172.367 242.087C185.788 242.087 196.668 252.967 196.668 266.389ZM199.446 266.389C199.446 281.344 187.322 293.468 172.367 293.468C157.411 293.468 145.288 281.344 145.288 266.389C145.288 251.434 157.411 239.31 172.367 239.31C187.322 239.31 199.446 251.434 199.446 266.389ZM172.465 246.253C173.232 246.253 173.854 246.875 173.854 247.642V258.751C173.854 259.518 173.232 260.14 172.465 260.14C171.698 260.14 171.077 259.518 171.077 258.751V247.642C171.077 246.875 171.698 246.253 172.465 246.253ZM186.857 254.178C187.4 253.636 187.4 252.757 186.857 252.214C186.315 251.672 185.436 251.672 184.894 252.214L177.038 260.07C176.496 260.612 176.496 261.491 177.038 262.034C177.58 262.576 178.46 262.576 179.002 262.034L186.857 254.178ZM167.893 271.179C168.435 271.722 168.435 272.601 167.893 273.143L160.037 280.999C159.495 281.541 158.616 281.541 158.073 280.999C157.531 280.456 157.531 279.577 158.073 279.035L165.929 271.179C166.471 270.637 167.35 270.637 167.893 271.179ZM177.038 271.179C177.58 270.637 178.46 270.637 179.002 271.179L186.857 279.035C187.4 279.577 187.4 280.456 186.857 280.999C186.315 281.541 185.436 281.541 184.894 280.999L177.038 273.143C176.496 272.601 176.496 271.722 177.038 271.179ZM158.073 252.214C158.616 251.672 159.495 251.672 160.037 252.214L167.893 260.07C168.435 260.612 168.435 261.491 167.893 262.034C167.35 262.576 166.471 262.576 165.929 262.034L158.073 254.178C157.531 253.636 157.531 252.757 158.073 252.214ZM173.854 274.462C173.854 273.695 173.232 273.073 172.465 273.073C171.698 273.073 171.077 273.695 171.077 274.462V285.571C171.077 286.338 171.698 286.96 172.465 286.96C173.232 286.96 173.854 286.338 173.854 285.571V274.462ZM165.999 266.606C165.999 267.373 165.377 267.995 164.61 267.995H153.501C152.734 267.995 152.112 267.373 152.112 266.606C152.112 265.839 152.734 265.218 153.501 265.218H164.61C165.377 265.218 165.999 265.839 165.999 266.606ZM191.43 267.995C192.197 267.995 192.819 267.373 192.819 266.606C192.819 265.839 192.197 265.218 191.43 265.218H180.321C179.554 265.218 178.932 265.839 178.932 266.606C178.932 267.373 179.554 267.995 180.321 267.995H191.43Z" fill="black"/>
<path d="M95.8178 239.878C95.8178 243.315 93.2447 246.732 88.4069 249.371C83.6217 251.981 76.916 253.638 69.4332 253.638C61.9504 253.638 55.2448 251.981 50.4595 249.371C45.6217 246.732 43.0486 243.315 43.0486 239.878C43.0486 236.441 45.6217 233.024 50.4595 230.385C55.2448 227.775 61.9504 226.118 69.4332 226.118C76.916 226.118 83.6217 227.775 88.4069 230.385C93.2447 233.024 95.8178 236.441 95.8178 239.878Z" fill="#3BB3BD" stroke="black" stroke-width="2.77733"/>
<path d="M95.8178 292.9C95.8178 296.337 93.2447 299.754 88.4069 302.393C83.6217 305.003 76.916 306.661 69.4332 306.661C61.9504 306.661 55.2448 305.003 50.4595 302.393C45.6217 299.754 43.0486 296.337 43.0486 292.9C43.0486 289.463 45.6217 286.046 50.4595 283.407C55.2448 280.797 61.9504 279.14 69.4332 279.14C76.916 279.14 83.6217 280.797 88.4069 283.407C93.2447 286.046 95.8178 289.463 95.8178 292.9Z" fill="#7FBC8C" stroke="black" stroke-width="2.77733"/>
<path d="M43.0485 239.879L43.0485 292.395" stroke="black" stroke-width="2.77733"/>
<path d="M95.8179 239.879L95.8179 292.395" stroke="black" stroke-width="2.77733"/>
<path d="M69.4332 253.891L69.4332 306.661" stroke="black" stroke-width="2.91289"/>
<path d="M337.962 -25.9028L337.968 -26.2386C338.326 -48.1697 356.217 -65.8382 378.234 -65.8382C400.25 -65.8382 418.141 -48.1697 418.499 -26.2386L418.505 -25.9029L418.505 14.7044L337.962 14.7044L337.962 -25.9028Z" fill="#746BEB" stroke="black" stroke-width="2.77733"/>
<path d="M378.903 73.1157C380.095 61.1197 376.096 48.7056 366.907 39.5164C357.717 30.3271 345.303 26.3282 333.307 27.5196C332.116 39.5156 336.115 51.9297 345.304 61.1189C354.493 70.3082 366.907 74.3071 378.903 73.1157Z" fill="#3BB3BD"/>
<path d="M377.05 73.1156C375.859 61.1195 379.858 48.7054 389.047 39.5162C398.236 30.3269 410.65 26.328 422.646 27.5194C423.838 39.5154 419.839 51.9295 410.649 61.1187C401.46 70.308 389.046 74.3069 377.05 73.1156Z" fill="#FFC700"/>
<path d="M378.903 70.7481C380.095 82.7441 376.096 95.1582 366.907 104.347C357.717 113.537 345.303 117.536 333.307 116.344C332.116 104.348 336.115 91.9342 345.304 82.7449C354.493 73.5557 366.907 69.5567 378.903 70.7481Z" fill="#746BEB"/>
<path d="M377.05 70.7482C375.859 82.7442 379.858 95.1583 389.047 104.348C398.236 113.537 410.65 117.536 422.646 116.344C423.838 104.348 419.839 91.9342 410.649 82.745C401.46 73.5557 389.046 69.5568 377.05 70.7482Z" fill="black"/>
<path d="M275.3 127.411L275.308 169.03L291.243 130.582L275.323 169.036L304.758 139.613L275.335 169.047L313.789 153.128L275.341 169.062L316.96 169.071L275.341 169.079L313.789 185.013L275.335 169.094L304.758 198.528L275.323 169.105L291.243 207.559L275.308 169.112L275.3 210.73L275.292 169.112L259.358 207.559L275.277 169.105L245.842 198.528L275.266 169.094L236.811 185.013L275.259 169.079L233.64 169.071L275.259 169.062L236.811 153.128L275.266 169.047L245.842 139.613L275.277 169.036L259.358 130.582L275.292 169.03L275.3 127.411Z" stroke="black" stroke-width="2.77733"/>
<path d="M214.027 136.437C214.027 159.445 195.375 178.097 172.367 178.097C149.359 178.097 130.707 159.445 130.707 136.437H152.736C152.736 147.279 161.525 156.068 172.367 156.068C183.208 156.068 191.997 147.279 191.997 136.437H214.027Z" fill="#7FA6BC"/>
<path fill-rule="evenodd" clip-rule="evenodd" d="M197.806 166.928C205.4 160.113 210.433 150.295 211.159 139.214H194.614C193.551 148.313 187.334 155.852 178.981 158.502C185.994 159.66 192.423 162.627 197.806 166.928ZM199.935 168.748C207.95 161.424 213.219 150.958 213.941 139.214C213.998 138.296 214.027 137.37 214.027 136.437H211.249H194.775H191.997C191.997 147.652 183.208 156.744 172.367 156.744C161.525 156.744 152.736 147.652 152.736 136.437H149.959H133.484H130.707C130.707 137.37 130.735 138.296 130.792 139.214C131.514 150.958 136.783 161.424 144.798 168.748C136.783 176.071 131.514 186.537 130.792 198.281C130.735 199.199 130.707 200.126 130.707 201.059H133.484H149.959H152.736C152.736 189.843 161.525 180.751 172.367 180.751C183.208 180.751 191.997 189.843 191.997 201.059H194.775H211.249H214.027C214.027 200.126 213.998 199.199 213.941 198.281C213.219 186.537 207.95 176.071 199.935 168.748ZM195.625 168.748C189.127 163.713 181.069 160.739 172.367 160.739C163.664 160.739 155.606 163.713 149.109 168.748C155.606 173.782 163.664 176.756 172.367 176.756C181.069 176.756 189.127 173.782 195.625 168.748ZM146.927 170.568C139.333 177.382 134.3 187.2 133.575 198.281H150.12C151.182 189.183 157.399 181.644 165.752 178.993C158.74 177.836 152.311 174.868 146.927 170.568ZM178.981 178.993C185.994 177.836 192.423 174.868 197.806 170.568C205.4 177.382 210.433 187.2 211.159 198.281H194.614C193.551 189.183 187.334 181.644 178.981 178.993ZM146.927 166.928C139.333 160.113 134.3 150.295 133.575 139.214H150.12C151.182 148.313 157.399 155.852 165.752 158.502C158.74 159.66 152.311 162.627 146.927 166.928Z" fill="black"/>
<path fill-rule="evenodd" clip-rule="evenodd" d="M69.1763 156.623C70.8992 149.371 74.5892 142.492 80.2465 136.835C89.4357 127.646 101.85 123.647 113.846 124.838C115.037 136.834 111.038 149.248 101.849 158.437C92.8962 167.39 80.8823 171.416 69.1763 170.516C57.4703 171.416 45.4564 167.39 36.5036 158.437C27.3143 149.248 23.3154 136.834 24.5067 124.838C36.5027 123.647 48.9169 127.646 58.1061 136.835C63.7633 142.492 67.4534 149.371 69.1763 156.623ZM56.1422 138.799C64.1252 146.782 67.9124 157.369 67.5005 167.832C57.0381 168.244 46.4504 164.456 38.4674 156.473C30.4844 148.49 26.6972 137.903 27.1092 127.44C37.5716 127.028 48.1593 130.816 56.1422 138.799ZM82.2103 138.799C74.2273 146.782 70.4401 157.369 70.8521 167.832C81.3145 168.244 91.9022 164.456 99.8851 156.473C107.868 148.49 111.655 137.903 111.243 127.44C100.781 127.028 90.1933 130.816 82.2103 138.799Z" fill="black"/>
<path fill-rule="evenodd" clip-rule="evenodd" d="M69.1763 181.878C70.8992 189.13 74.5892 196.009 80.2465 201.666C89.4357 210.855 101.85 214.854 113.846 213.663C115.037 201.667 111.038 189.253 101.849 180.064C92.8962 171.111 80.8823 167.085 69.1763 167.985C57.4703 167.085 45.4564 171.111 36.5036 180.064C27.3143 189.253 23.3154 201.667 24.5067 213.663C36.5027 214.854 48.9169 210.855 58.1061 201.666C63.7633 196.009 67.4534 189.13 69.1763 181.878ZM56.1422 199.702C64.1252 191.719 67.9124 181.132 67.5005 170.669C57.0381 170.257 46.4504 174.045 38.4674 182.028C30.4844 190.01 26.6972 200.598 27.1092 211.061C37.5716 211.473 48.1593 207.685 56.1422 199.702ZM82.2103 199.702C74.2273 191.719 70.4401 181.132 70.8521 170.669C81.3145 170.257 91.9022 174.045 99.8851 182.028C107.868 190.01 111.655 200.598 111.243 211.061C100.781 211.473 90.1933 207.685 82.2103 199.702Z" fill="black"/>
<path d="M130.707 -48.4803L172.367 -28.1844V15.968L130.707 -1.83538V-48.4803Z" fill="#7FA6BC"/>
<path d="M214.027 -48.4803L172.367 -28.1844V15.968L214.027 -1.83538V-48.4803Z" fill="#BC7F7F"/>
<path d="M172.367 -67.2269V-28.0594M172.367 -67.2269L130.707 -48.3553M172.367 -67.2269L214.027 -48.3553M172.367 -28.0594L130.707 -48.3553M172.367 -28.0594L214.027 -48.3553M172.367 -28.0594V16.093M130.707 -48.3553V-1.71037L172.367 16.093M214.027 -48.3553V-1.71037L172.367 16.093" stroke="black" stroke-width="2.77733"/>
<path fill-rule="evenodd" clip-rule="evenodd" d="M316.96 30.0921H233.64V113.412H316.96V30.0921ZM265.537 42.9986C270.526 48.0168 273.781 54.1192 275.3 60.5518C276.82 54.1192 280.074 48.0169 285.064 42.9987C293.168 34.8476 304.117 31.3004 314.696 32.3572C315.747 42.998 312.22 54.0096 304.116 62.1607C299.362 66.9421 293.629 70.1393 287.566 71.7523C293.629 73.3653 299.362 76.5626 304.116 81.344C312.22 89.4951 315.747 100.507 314.696 111.147C304.117 112.204 293.168 108.657 285.064 100.506C280.074 95.4878 276.82 89.3855 275.3 82.9529C273.781 89.3855 270.526 95.4878 265.537 100.506C257.433 108.657 246.484 112.204 235.904 111.147C234.853 100.507 238.38 89.4951 246.485 81.344C251.239 76.5625 256.972 73.3653 263.035 71.7523C256.972 70.1393 251.239 66.9421 246.485 62.1606C238.38 54.0095 234.853 42.9979 235.904 32.3571C246.484 31.3003 257.432 34.8475 265.537 42.9986Z" fill="#FFC700"/>
<circle cx="69.4333" cy="-25.5668" r="40.2713" stroke="black" stroke-width="2.77733" stroke-dasharray="5.55 5.55"/>
<rect x="132.095" y="31.4808" width="80.5426" height="80.5426" stroke="black" stroke-width="2.77733"/>
<path d="M169.949 41.8894L172.367 34.537L174.785 41.8894C179.056 54.8765 189.242 65.0627 202.229 69.334L209.582 71.752L202.229 74.1701C189.242 78.4413 179.056 88.6275 174.785 101.615L172.367 108.967L169.949 101.615C165.677 88.6275 155.491 78.4413 142.504 74.1701L135.152 71.752L142.504 69.334C155.491 65.0627 165.677 54.8765 169.949 41.8894Z" fill="#746BEB" stroke="black" stroke-width="2.77733"/>
<circle cx="49.992" cy="52.3109" r="19.4413" fill="white" stroke="black" stroke-width="2.77733"/>
<path d="M49.4425 37.5965L49.992 35.9258L50.5414 37.5965C52.7459 44.2995 58.0033 49.5569 64.7064 51.7614L66.3771 52.3109L64.7064 52.8603C58.0033 55.0648 52.7459 60.3222 50.5414 67.0253L49.992 68.696L49.4425 67.0253C47.238 60.3222 41.9806 55.0648 35.2776 52.8603L33.6069 52.3109L35.2776 51.7614C41.9806 49.5569 47.238 44.2995 49.4425 37.5965Z" fill="#A17FBC" stroke="black" stroke-width="2.77733"/>
<circle cx="49.992" cy="91.1936" r="19.4413" fill="white" stroke="black" stroke-width="2.77733"/>
<circle cx="88.8745" cy="52.3106" r="19.4413" fill="white" stroke="black" stroke-width="2.77733"/>
<circle cx="88.8745" cy="91.1936" r="19.4413" fill="white" stroke="black" stroke-width="2.77733"/>
<path d="M88.3251 76.4792L88.8745 74.8085L89.424 76.4792C91.6285 83.1823 96.8859 88.4397 103.589 90.6442L105.26 91.1936L103.589 91.7431C96.8859 93.9476 91.6285 99.205 89.424 105.908L88.8745 107.579L88.3251 105.908C86.1206 99.205 80.8632 93.9476 74.1601 91.7431L72.4894 91.1936L74.1601 90.6442C80.8632 88.4397 86.1206 83.1823 88.3251 76.4792Z" fill="#BCA47F" stroke="black" stroke-width="2.77733"/>
</svg>
